<svg width="22" height="22" viewBox="0 0 22 22" fill="none" xmlns="http://www.w3.org/2000/svg">
<path fill-rule="evenodd" clip-rule="evenodd" d="M5.50001 5.50004H7.33334V4.58337H14.6667V5.50004H16.5V4.58337H18.3333V7.33337H3.66668V4.58337H5.50001V5.50004ZM3.66668 9.16671V18.3334H18.3333V9.16671H3.66668ZM7.33334 2.75004H14.6667V1.83337H16.5V2.75004H18.3333C19.3459 2.75004 20.1667 3.57085 20.1667 4.58337V18.3334C20.1667 19.3459 19.3459 20.1667 18.3333 20.1667H3.66668C2.65415 20.1667 1.83334 19.3459 1.83334 18.3334V4.58337C1.83334 3.57085 2.65415 2.75004 3.66668 2.75004H5.50001V1.83337H7.33334V2.75004Z" fill="#00B8F8"/>
</svg>
